<svg xmlns="http://www.w3.org/2000/svg" viewBox="0 0 160 160" role="img" aria-label="Ahmed Admin avatar">
  <defs>
    <linearGradient id="bg" x1="20" y1="15" x2="140" y2="145" gradientUnits="userSpaceOnUse">
      <stop offset="0" stop-color="#38bdf8"/>
      <stop offset="1" stop-color="#8b5cf6"/>
    </linearGradient>
    <filter id="shadow" x="-20%" y="-20%" width="140%" height="140%">
      <feDropShadow dx="0" dy="8" stdDeviation="8" flood-color="#020617" flood-opacity=".28"/>
    </filter>
  </defs>
  <rect width="160" height="160" rx="42" fill="url(#bg)"/>
  <circle cx="80" cy="66" r="31" fill="#f0b38d" filter="url(#shadow)"/>
  <path d="M47 139c6-29 21-45 33-45s27 16 33 45H47Z" fill="#22c55e" filter="url(#shadow)"/>
  <path d="M52 61c3-25 23-39 44-28 10 5 16 14 15 28-17-12-36-12-59 0Z" fill="#111827"/>
  <circle cx="68" cy="70" r="4" fill="#111827"/>
  <circle cx="92" cy="70" r="4" fill="#111827"/>
  <path d="M69 84c7 6 15 6 22 0" fill="none" stroke="#7c2d12" stroke-width="5" stroke-linecap="round"/>
  <circle cx="80" cy="80" r="78" fill="none" stroke="rgba(255,255,255,.22)" stroke-width="4"/>
</svg>
